HIERARCHY
ROOT Hips
{
	OFFSET 0.000000 0.000000 0.000000 
	CHANNELS 6 Xposition Yposition Zposition Zrotation Yrotation Xrotation
	JOINT LeftUpLeg
	{
		OFFSET 1.363060 -1.794630 0.839290 
		CHANNELS 3 Zrotation Yrotation Xrotation
		JOINT LeftLeg
		{
			OFFSET 2.448110 -6.726130 0.000000 
			CHANNELS 3 Zrotation Yrotation Xrotation
			JOINT LeftFoot
			{
				OFFSET 2.562200 -7.039590 0.000000 
				CHANNELS 3 Zrotation Yrotation Xrotation
				JOINT LeftToeBase
				{
					OFFSET 0.157640 -0.433110 2.322550 
					CHANNELS 3 Zrotation Yrotation Xrotation
					End Site
					{
						OFFSET 0.000000 0.000000 0.000000 
					}
				}
			}
		}
	}
	JOINT RightUpLeg
	{
		OFFSET -1.305520 -1.794630 0.839290 
		CHANNELS 3 Zrotation Yrotation Xrotation
		JOINT RightLeg
		{
			OFFSET -2.542530 -6.985550 0.000000 
			CHANNELS 3 Zrotation Yrotation Xrotation
			JOINT RightFoot
			{
				OFFSET -2.568260 -7.056230 0.000000 
				CHANNELS 3 Zrotation Yrotation Xrotation
				JOINT RightToeBase
				{
					OFFSET -0.164730 -0.452590 2.363150 
					CHANNELS 3 Zrotation Yrotation Xrotation
					End Site
					{
						OFFSET 0.000000 0.000000 0.000000 
					}
				}
			}
		}
	}
	JOINT Spine
	{
		OFFSET 0.028270 2.035590 -0.193380 
		CHANNELS 3 Zrotation Yrotation Xrotation
		JOINT Spine1
		{
			OFFSET 0.056720 2.048850 -0.042750 
			CHANNELS 3 Zrotation Yrotation Xrotation
			JOINT Neck1
			{
				OFFSET -0.054170 1.746240 0.172020 
				CHANNELS 3 Zrotation Yrotation Xrotation
				JOINT Head
				{
					OFFSET 0.104070 1.761360 -0.123970 
					CHANNELS 3 Zrotation Yrotation Xrotation
					End Site
					{
						OFFSET 0.000000 0.000000 0.000000 
					}
				}
			}
			JOINT LeftArm
			{
				OFFSET 3.362410 1.200890 -0.311210 
				CHANNELS 3 Zrotation Yrotation Xrotation
				JOINT LeftForeArm
				{
					OFFSET 4.983000 -0.000000 -0.000000 
					CHANNELS 3 Zrotation Yrotation Xrotation
					JOINT LeftHand
					{
						OFFSET 3.483560 -0.000000 -0.000000 
						CHANNELS 3 Zrotation Yrotation Xrotation
						JOINT LeftHandIndex1
						{
							OFFSET 0.715260 -0.000000 -0.000000 
							CHANNELS 3 Zrotation Yrotation Xrotation
							End Site
							{
								OFFSET 0.000000 0.000000 0.000000 
							}
						}
					}
				}
			}
			JOINT RightArm
			{
				OFFSET -3.136600 1.374050 -0.404650 
				CHANNELS 3 Zrotation Yrotation Xrotation
				JOINT RightForeArm
				{
					OFFSET -5.241900 -0.000000 -0.000000 
					CHANNELS 3 Zrotation Yrotation Xrotation
					JOINT RightHand
					{
						OFFSET -3.444170 -0.000000 -0.000000 
						CHANNELS 3 Zrotation Yrotation Xrotation
						JOINT RightHandIndex1
						{
							OFFSET -0.622530 -0.000000 -0.000000 
							CHANNELS 3 Zrotation Yrotation Xrotation
							End Site
							{
								OFFSET 0.000000 0.000000 0.000000 
							}
						}
					}
				}
			}
		}
	}
}
MOTION
Frames: 13
Frame Time: 0.041667
9.743025 17.839703 24.851542 -177.812104 5.426178 -164.507640 -21.801712 -13.653196 -9.912939 0.127024 3.021157 9.413837 0.485646 -3.196352 -12.649536 8.020200 -16.134100 -52.635400 34.067700 7.595735 -8.460730 -0.194458 -2.791094 11.391973 -0.159965 1.619767 -8.407694 -0.073100 1.744600 -4.800400 1.340451 2.638949 -4.789149 6.146938 1.257244 4.676090 2.875545 -4.031230 29.628937 0.133700 -2.803200 11.814500 -92.227810 -0.505328 14.250499 6.987258 -15.972965 -1.967209 0.320018 1.106100 23.735557 -7.125000 0.000000 0.000000 81.849298 -11.136904 -1.416859 -14.498611 32.313112 -6.258654 0.641000 -2.146611 10.013731 7.125000 0.000000 0.000000 
9.752007 17.836495 24.844591 -177.817982 5.294665 -164.621654 -21.821361 -13.634350 -9.790863 0.130832 3.050712 9.515863 0.492059 -3.082674 -12.720203 8.317800 -16.348100 -53.699600 34.097923 7.628033 -8.238122 -0.182125 -2.772028 11.363697 -0.185112 1.573138 -8.738980 -0.108200 2.121300 -5.841100 1.214649 2.782775 -4.777406 5.583522 1.349911 4.540720 4.752702 -3.715941 27.533807 1.018300 -2.433000 10.666300 -91.572602 -0.305746 14.336711 6.883398 -15.822122 -1.927617 0.302056 1.110356 23.982702 -7.125000 0.000000 0.000000 82.437372 -11.171385 -2.504719 -13.768665 31.621321 -6.024361 0.570644 -2.203231 10.570446 7.125000 0.000000 0.000000 
9.759172 17.833501 24.834005 -177.819516 5.071908 -164.614595 -21.812025 -13.686423 -9.821779 0.140616 3.093528 9.633688 0.491311 -3.144185 -12.713527 8.485100 -16.464700 -54.291700 34.123633 7.583674 -8.117084 -0.165066 -2.727460 11.256798 -0.208966 1.554450 -9.055940 -0.125100 2.279900 -6.280000 1.124937 2.768069 -4.803434 4.875367 1.300651 4.613316 3.161423 -2.758484 28.858475 -0.005900 -1.844000 11.709400 -90.926518 -0.158761 14.044815 6.735557 -15.606590 -1.875801 0.290479 1.111080 24.680162 -7.125000 0.000000 0.000000 83.125656 -11.139841 -3.738450 -13.086489 30.923491 -5.773804 0.465261 -2.250862 11.204929 7.125000 0.000000 0.000000 
9.764305 17.831469 24.821279 -177.867435 4.919744 -164.641234 -21.891154 -13.718724 -9.744454 0.143365 3.089642 9.641736 0.489818 -3.197939 -12.691151 8.553900 -16.511900 -54.534000 34.038625 7.457949 -8.040979 -0.149392 -2.701030 11.193449 -0.265313 1.641033 -9.812017 -0.311800 3.589500 -9.924500 0.972567 2.775839 -4.819986 3.990408 1.292044 4.613628 3.353126 -2.643921 29.364266 -0.038000 -1.694500 12.122300 -90.133766 -0.057100 13.486812 6.543456 -15.310453 -1.817921 0.282597 1.111998 25.545576 -7.125000 0.000000 0.000000 83.945218 -11.090834 -4.928154 -12.376456 30.230676 -5.523200 0.354712 -2.308051 11.858675 7.125000 0.000000 0.000000 
9.768475 17.828689 24.808447 -177.883665 4.879406 -164.717553 -21.946542 -13.691809 -9.590624 0.141801 3.074797 9.626217 0.494820 -3.176180 -12.742380 8.549800 -16.509100 -54.519700 33.972405 7.331401 -7.974073 -0.172013 -2.687747 11.173700 -0.309989 2.835679 -10.652192 -0.590800 4.921100 -13.683600 0.853018 2.733769 -4.827133 3.289843 1.274122 4.588380 4.391857 -2.885418 29.578762 0.460900 -1.769000 12.290100 -89.536931 0.025187 12.678972 6.321825 -14.968142 -1.766408 0.282185 1.114762 26.103843 -7.125000 0.000000 0.000000 84.471844 -11.046356 -5.686642 -11.805716 29.685058 -5.324832 0.358355 -2.372089 12.686610 7.125000 0.000000 0.000000 
9.771790 17.824946 24.793477 -177.808093 4.823874 -164.771202 -21.923015 -13.647831 -9.389773 0.137080 3.042804 9.576730 0.503372 -3.117626 -12.831670 8.509200 -16.481300 -54.376600 33.973112 7.220060 -7.889582 -0.189667 -2.642187 11.052942 -0.416533 4.693124 -12.209574 -1.253100 7.096800 -20.002500 0.596750 2.766087 -4.845433 1.870837 1.297425 4.528913 5.984176 -3.391809 30.056774 1.215800 -1.950800 12.663600 -88.385259 0.174329 12.341258 6.165825 -14.697795 -1.723141 0.257004 1.129533 26.017360 -7.125000 0.000000 0.000000 85.646756 -11.142673 -6.345613 -11.504551 29.589563 -5.302496 0.227616 -2.469090 13.534043 7.125000 0.000000 0.000000 
9.774250 17.823556 24.780752 -177.789294 4.818130 -164.834007 -21.938870 -13.620115 -9.216921 0.134778 3.022263 9.538157 0.508775 -3.144175 -12.887178 8.421600 -16.420800 -54.067600 34.022677 7.108919 -7.754469 -0.186970 -2.614641 11.002945 -0.414908 4.758283 -12.199409 -1.269700 7.141900 -20.136300 0.625961 2.739854 -4.828314 2.016485 1.290743 4.616818 7.169742 -3.795243 30.647230 1.931100 -2.208200 13.083100 -88.456123 0.162251 11.378388 5.977669 -14.419084 -1.689717 0.250816 1.131971 26.677443 -7.125000 0.000000 0.000000 85.491103 -11.294600 -6.341408 -11.193902 29.277440 -5.207075 0.170068 -2.447643 12.829809 7.125000 0.000000 0.000000 
9.776388 17.824519 24.771342 -177.881923 4.768208 -164.859394 -22.071445 -13.687481 -9.166953 0.139153 3.040257 9.593450 0.509314 -3.174470 -12.892532 8.400600 -16.406100 -53.992900 33.925540 6.998689 -7.724727 -0.192940 -2.614696 11.018949 -0.416488 4.806674 -12.222335 -1.267600 7.136200 -20.119500 0.626356 2.726352 -4.832108 2.032298 1.285525 4.606464 7.060038 -3.823764 30.708050 1.883300 -2.241300 13.091900 -88.377243 0.261295 10.755760 5.851276 -14.241579 -1.667496 0.196246 1.145487 27.150101 -7.125000 0.000000 0.000000 85.440032 -11.405862 -6.835702 -10.956772 28.951453 -5.089606 0.220393 -2.450891 13.456739 7.125000 0.000000 0.000000 
9.780238 17.825267 24.761504 -178.005314 4.707473 -164.843192 -22.225969 -13.839351 -9.158608 0.142771 3.069158 9.674569 0.510204 -3.116047 -12.904826 8.413900 -16.415400 -54.040300 33.787811 6.940827 -7.725851 -0.194749 -2.607710 11.007160 -0.418049 4.761924 -12.226016 -1.247900 7.082700 -19.960800 0.610570 2.734472 -4.857303 2.009688 1.292343 4.546625 7.030612 -3.885230 30.764850 1.857600 -2.273200 13.115400 -88.217309 0.403110 10.505718 5.796754 -14.167608 -1.648688 0.137402 1.151626 27.309841 -7.125000 0.000000 0.000000 85.520989 -11.491568 -7.578775 -10.757394 28.651665 -4.997172 0.247783 -2.458313 14.412540 7.125000 0.000000 0.000000 
9.784515 17.825267 24.752521 -178.015024 4.662829 -164.799163 -22.227631 -13.997078 -9.167511 0.146024 3.098002 9.750294 0.516712 -3.098123 -12.980857 8.320400 -16.349900 -53.708700 33.782806 6.879827 -7.753327 -0.193316 -2.603382 10.993302 -0.419041 4.746963 -12.232307 -1.245500 7.076200 -19.941400 0.609442 2.741304 -4.874220 1.980022 1.298596 4.536478 7.074252 -3.936519 30.813982 1.856400 -2.284100 13.147800 -88.061227 0.430442 10.219175 5.738502 -14.079552 -1.636207 0.160733 1.148746 27.448019 -7.125000 0.000000 0.000000 85.627335 -11.542833 -8.105468 -10.635247 28.472575 -4.950124 0.251428 -2.466850 14.807499 7.125000 0.000000 0.000000 
9.786761 17.826016 24.745571 -177.962351 4.622149 -164.715496 -22.156064 -14.084575 -9.230166 0.146498 3.112108 9.780139 0.519704 -3.065985 -13.017871 8.289300 -16.327900 -53.598000 33.845609 6.801660 -7.867620 -0.197217 -2.624018 11.034393 -0.417412 4.809599 -12.237380 -1.267000 7.134600 -20.114900 0.624766 2.708942 -4.886953 1.949814 1.281592 4.587822 6.789840 -4.044973 31.075310 1.684400 -2.332300 13.345300 -87.973889 0.374112 9.759498 5.650584 -13.946896 -1.630405 0.200770 1.148557 27.674946 -7.125000 0.000000 0.000000 85.654100 -11.555528 -8.342076 -10.560004 28.373772 -4.927319 0.250026 -2.470973 14.836061 7.125000 0.000000 0.000000 
9.789969 17.828582 24.741293 -177.953236 4.642873 -164.685292 -22.136918 -14.076468 -9.244547 0.142201 3.101207 9.747725 0.517441 -2.966502 -12.995108 8.352200 -16.372300 -53.821700 33.874933 6.849678 -7.907738 -0.199860 -2.644618 11.085109 -0.419761 4.799341 -12.259087 -1.286700 7.187800 -20.273000 0.647685 2.657749 -4.914619 1.977382 1.252272 4.583829 5.974100 -4.368582 31.892229 1.235200 -2.529400 13.928800 -87.951978 0.422935 9.476803 5.629646 -13.916243 -1.637809 0.206543 1.153618 27.746757 -7.125000 0.000000 0.000000 85.616170 -11.606474 -8.334941 -10.492355 28.301717 -4.908523 0.229468 -2.463376 14.581056 7.125000 0.000000 0.000000 
9.795102 17.831148 24.739475 -177.942806 4.668634 -164.710124 -22.106787 -14.035673 -9.210121 0.141379 3.101812 9.763813 0.518755 -2.860818 -13.010540 8.424200 -16.422600 -54.076700 33.921191 6.963177 -7.840723 -0.194645 -2.645072 11.080174 -0.423941 4.741845 -12.285390 -1.305300 7.237600 -20.421300 0.643204 2.722292 -4.906752 2.193132 1.358079 4.302045 8.996481 -4.845705 28.179206 3.000500 -2.860500 11.255200 -87.963998 0.518671 9.418107 5.682600 -13.974568 -1.636110 0.200205 1.146777 27.699325 -7.125000 0.000000 0.000000 85.534651 -11.808878 -8.190414 -10.438197 28.267232 -4.898944 0.215677 -2.455544 14.173525 7.125000 0.000000 0.000000 
